# xmcd
#
# Track frame offsets:
#  150
#  10838
#  20688
#  32588
#  43475
#  55638
#  67038
#  77650
#  89113
#  99513
#  112513
#  124250
#
# Disc length: 1821 seconds
#
# Revision: 1
# Processed by: cddbd v1.5.1PL2 Copyright (c) Steve Scherf et al.
# Submitted via: Collectorz.com Music Collector 6.9
#
DISCID=98071b0c
DTITLE=Patsy Cline and Wanda Jackson - Favourites
DYEAR=1999
DGENRE=Country
TTITLE0=How Can I Face Tomorrow
TTITLE1=I'm Moving Along
TTITLE2=Lonely Street
TTITLE3=Lovesick Blues
TTITLE4=Dear God (I Go To Church On Sundays)
TTITLE5=Hidin' Out
TTITLE6=He Will Do For You
TTITLE7=That Wonderful Someone
TTITLE8=Walking Dream
TTITLE9=I Fall to Pieces [Cover by Wanda Jackson]
TTITLE10=Sweet Dreams (oOf You) [Cover by Wanda Jackson]
TTITLE11=Crazy [Cover by Wanda Jackson]
EXTD=
EXTT0=
EXTT1=
EXTT2=
EXTT3=
EXTT4=
EXTT5=
EXTT6=
EXTT7=
EXTT8=
EXTT9=
EXTT10=
EXTT11=
PLAYORDER=
